<svg width="104" height="91" viewBox="0 0 104 91" fill="none" xmlns="http://www.w3.org/2000/svg">
<path d="M91.4658 40.4148C99.0953 34.8991 101.725 22.6293 97.323 13.0827C92.9214 3.53624 83.1207 0.25273 75.4912 5.76846L91.4658 40.4148Z" fill="#FFCF2D"/>
<path d="M69.8676 56.029C77.4971 50.5133 80.1265 38.2435 75.7249 28.697C71.3232 19.1505 61.5226 15.867 53.8931 21.3827L69.8676 56.029Z" fill="#FFCF2D"/>
<path d="M48.2695 71.6433C55.899 66.1276 58.5284 53.8578 54.1267 44.3113C49.7251 34.7648 39.9244 31.4812 32.2949 36.997L48.2695 71.6433Z" fill="#FFCF2D"/>
<path d="M22.0502 89.0447C29.6797 83.5289 32.3091 71.2591 27.9075 61.7126C23.5058 52.1661 13.7052 48.8826 6.0757 54.3983L22.0502 89.0447Z" fill="#FFCF2D"/>
</svg>
