<svg width="1935" height="1097" viewBox="0 0 1935 1097" fill="none" xmlns="http://www.w3.org/2000/svg">
<g opacity="0.2" clip-path="url(#clip0_2571_421)">
<path d="M142.097 813C63.5443 813 0 876.544 0 955.097C0 1033.46 63.5443 1097.19 142.097 1097.19C220.456 1097.19 284.195 1033.65 284.195 955.097C284 876.544 220.456 813 142.097 813ZM142.097 1088.03C68.6122 1088.03 9.16129 1028.58 9.16129 955.097C9.16129 881.612 68.6122 822.161 142.097 822.161C215.583 822.161 275.034 881.612 275.034 955.097C275.034 1028.39 215.388 1088.03 142.097 1088.03Z" fill="white"/>
<path d="M142.099 843.603C80.6986 843.603 30.7988 893.502 30.7988 954.902C30.7988 1016.3 80.6986 1066.2 142.099 1066.2C203.499 1066.2 253.399 1016.5 253.399 955.097C253.399 893.502 203.499 843.603 142.099 843.603ZM142.099 1049.24C90.0548 1049.24 47.757 1006.95 47.757 954.902C47.757 902.859 90.0548 860.561 142.099 860.561C194.143 860.561 236.441 902.859 236.441 954.902C236.441 1006.95 194.143 1049.24 142.099 1049.24Z" fill="white"/>
<path d="M142.098 892.527C107.597 892.527 79.5283 920.596 79.5283 955.097C79.5283 989.598 107.402 1017.67 142.098 1017.67C176.599 1017.67 204.668 989.598 204.668 955.097C204.473 920.596 176.599 892.527 142.098 892.527ZM142.098 988.623C123.58 988.623 108.572 973.614 108.572 955.097C108.572 936.579 123.58 921.571 142.098 921.571C160.616 921.571 175.624 936.579 175.624 955.097C175.624 973.614 160.616 988.623 142.098 988.623Z" fill="white"/>
</g>
<g opacity="0.8" clip-path="url(#clip1_2571_421)">
<path d="M1753.34 834.264C1753.34 835.784 1752.19 836.923 1750.67 836.923C1749.14 836.923 1748 835.784 1748 834.264C1748 832.745 1749.14 831.605 1750.67 831.605C1752.19 831.605 1753.34 832.872 1753.34 834.264Z" fill="white"/>
<path d="M1776.08 834.264C1776.08 835.784 1774.93 836.923 1773.41 836.923C1771.88 836.923 1770.74 835.784 1770.74 834.264C1770.74 832.745 1771.88 831.605 1773.41 831.605C1774.8 831.605 1776.08 832.872 1776.08 834.264Z" fill="white"/>
<path d="M1798.69 834.264C1798.69 835.784 1797.54 836.923 1796.02 836.923C1794.5 836.923 1793.35 835.784 1793.35 834.264C1793.35 832.745 1794.5 831.605 1796.02 831.605C1797.54 831.605 1798.69 832.872 1798.69 834.264Z" fill="white"/>
<path d="M1821.43 834.264C1821.43 835.784 1820.28 836.923 1818.76 836.923C1817.24 836.923 1816.09 835.784 1816.09 834.264C1816.09 832.745 1817.24 831.605 1818.76 831.605C1820.28 831.605 1821.43 832.872 1821.43 834.264Z" fill="white"/>
<path d="M1844.17 834.264C1844.17 835.784 1843.02 836.923 1841.5 836.923C1839.98 836.923 1838.83 835.784 1838.83 834.264C1838.83 832.745 1839.98 831.605 1841.5 831.605C1842.9 831.605 1844.17 832.872 1844.17 834.264Z" fill="white"/>
<path d="M1866.91 834.264C1866.91 835.784 1865.76 836.923 1864.24 836.923C1862.72 836.923 1861.57 835.784 1861.57 834.264C1861.57 832.745 1862.72 831.605 1864.24 831.605C1865.76 831.605 1866.91 832.872 1866.91 834.264Z" fill="white"/>
<path d="M1889.52 834.264C1889.52 835.784 1888.38 836.923 1886.85 836.923C1885.33 836.923 1884.18 835.784 1884.18 834.264C1884.18 832.745 1885.33 831.605 1886.85 831.605C1888.38 831.605 1889.52 832.872 1889.52 834.264Z" fill="white"/>
<path d="M1912.26 834.264C1912.26 835.784 1911.12 836.923 1909.59 836.923C1908.07 836.923 1906.92 835.784 1906.92 834.264C1906.92 832.745 1908.07 831.605 1909.59 831.605C1911.12 831.605 1912.26 832.872 1912.26 834.264Z" fill="white"/>
<path d="M1935 834.264C1935 835.784 1933.86 836.923 1932.33 836.923C1930.81 836.923 1929.66 835.784 1929.66 834.264C1929.66 832.745 1930.81 831.605 1932.33 831.605C1933.73 831.605 1935 832.872 1935 834.264Z" fill="white"/>
<path d="M1753.34 853.131C1753.34 854.65 1752.19 855.79 1750.67 855.79C1749.14 855.79 1748 854.65 1748 853.131C1748 851.611 1749.14 850.472 1750.67 850.472C1752.19 850.472 1753.34 851.611 1753.34 853.131Z" fill="white"/>
<path d="M1776.08 853.131C1776.08 854.65 1774.93 855.79 1773.41 855.79C1771.88 855.79 1770.74 854.65 1770.74 853.131C1770.74 851.611 1771.88 850.472 1773.41 850.472C1774.8 850.472 1776.08 851.611 1776.08 853.131Z" fill="white"/>
<path d="M1798.69 853.131C1798.69 854.65 1797.54 855.79 1796.02 855.79C1794.5 855.79 1793.35 854.65 1793.35 853.131C1793.35 851.611 1794.5 850.472 1796.02 850.472C1797.54 850.472 1798.69 851.611 1798.69 853.131Z" fill="white"/>
<path d="M1821.43 853.131C1821.43 854.65 1820.28 855.79 1818.76 855.79C1817.24 855.79 1816.09 854.65 1816.09 853.131C1816.09 851.611 1817.24 850.472 1818.76 850.472C1820.28 850.472 1821.43 851.611 1821.43 853.131Z" fill="white"/>
<path d="M1844.17 853.131C1844.17 854.65 1843.02 855.79 1841.5 855.79C1839.98 855.79 1838.83 854.65 1838.83 853.131C1838.83 851.611 1839.98 850.472 1841.5 850.472C1842.9 850.472 1844.17 851.611 1844.17 853.131Z" fill="white"/>
<path d="M1866.91 853.131C1866.91 854.65 1865.76 855.79 1864.24 855.79C1862.72 855.79 1861.57 854.65 1861.57 853.131C1861.57 851.611 1862.72 850.472 1864.24 850.472C1865.76 850.472 1866.91 851.611 1866.91 853.131Z" fill="white"/>
<path d="M1889.52 853.131C1889.52 854.65 1888.38 855.79 1886.85 855.79C1885.33 855.79 1884.18 854.65 1884.18 853.131C1884.18 851.611 1885.33 850.472 1886.85 850.472C1888.38 850.472 1889.52 851.611 1889.52 853.131Z" fill="white"/>
<path d="M1912.26 853.131C1912.26 854.65 1911.12 855.79 1909.59 855.79C1908.07 855.79 1906.92 854.65 1906.92 853.131C1906.92 851.611 1908.07 850.472 1909.59 850.472C1911.12 850.472 1912.26 851.611 1912.26 853.131Z" fill="white"/>
<path d="M1935 853.131C1935 854.65 1933.86 855.79 1932.33 855.79C1930.81 855.79 1929.66 854.65 1929.66 853.131C1929.66 851.611 1930.81 850.472 1932.33 850.472C1933.73 850.472 1935 851.611 1935 853.131Z" fill="white"/>
<path d="M1753.34 796.659C1753.34 798.178 1752.19 799.318 1750.67 799.318C1749.14 799.318 1748 798.178 1748 796.659C1748 795.14 1749.14 794 1750.67 794C1752.19 794 1753.34 795.14 1753.34 796.659Z" fill="white"/>
<path d="M1776.08 796.659C1776.08 798.178 1774.93 799.318 1773.41 799.318C1771.88 799.318 1770.74 798.178 1770.74 796.659C1770.74 795.14 1771.88 794 1773.41 794C1774.8 794 1776.08 795.14 1776.08 796.659Z" fill="white"/>
<path d="M1798.69 796.659C1798.69 798.178 1797.54 799.318 1796.02 799.318C1794.5 799.318 1793.35 798.178 1793.35 796.659C1793.35 795.14 1794.62 794 1796.02 794C1797.54 794 1798.69 795.14 1798.69 796.659Z" fill="white"/>
<path d="M1821.43 796.659C1821.43 798.178 1820.28 799.318 1818.76 799.318C1817.24 799.318 1816.09 798.178 1816.09 796.659C1816.09 795.14 1817.36 794 1818.76 794C1820.16 794 1821.43 795.14 1821.43 796.659Z" fill="white"/>
<path d="M1844.17 796.659C1844.17 798.178 1843.02 799.318 1841.5 799.318C1839.98 799.318 1838.83 798.178 1838.83 796.659C1838.83 795.14 1839.98 794 1841.5 794C1842.9 794 1844.17 795.14 1844.17 796.659Z" fill="white"/>
<path d="M1866.91 796.659C1866.91 798.178 1865.76 799.318 1864.24 799.318C1862.72 799.318 1861.57 798.178 1861.57 796.659C1861.57 795.14 1862.72 794 1864.24 794C1865.76 794 1866.91 795.14 1866.91 796.659Z" fill="white"/>
<path d="M1889.52 796.659C1889.52 798.178 1888.38 799.318 1886.85 799.318C1885.33 799.318 1884.18 798.178 1884.18 796.659C1884.18 795.14 1885.33 794 1886.85 794C1888.38 794 1889.52 795.14 1889.52 796.659Z" fill="white"/>
<path d="M1912.26 796.659C1912.26 798.178 1911.12 799.318 1909.59 799.318C1908.07 799.318 1906.92 798.178 1906.92 796.659C1906.92 795.14 1908.07 794 1909.59 794C1911.12 794 1912.26 795.14 1912.26 796.659Z" fill="white"/>
<path d="M1935 796.659C1935 798.178 1933.86 799.318 1932.33 799.318C1930.81 799.318 1929.66 798.178 1929.66 796.659C1929.66 795.14 1930.81 794 1932.33 794C1933.73 794 1935 795.14 1935 796.659Z" fill="white"/>
<path d="M1753.34 815.525C1753.34 817.045 1752.19 818.184 1750.67 818.184C1749.14 818.184 1748 816.918 1748 815.525C1748 814.006 1749.14 812.866 1750.67 812.866C1752.19 812.866 1753.34 814.006 1753.34 815.525Z" fill="white"/>
<path d="M1776.08 815.525C1776.08 817.045 1774.93 818.184 1773.41 818.184C1771.88 818.184 1770.74 817.045 1770.74 815.525C1770.74 814.006 1771.88 812.866 1773.41 812.866C1774.8 812.866 1776.08 814.006 1776.08 815.525Z" fill="white"/>
<path d="M1798.69 815.525C1798.69 817.045 1797.54 818.184 1796.02 818.184C1794.5 818.184 1793.35 817.045 1793.35 815.525C1793.35 814.006 1794.5 812.866 1796.02 812.866C1797.54 812.866 1798.69 814.006 1798.69 815.525Z" fill="white"/>
<path d="M1821.43 815.525C1821.43 817.045 1820.28 818.184 1818.76 818.184C1817.24 818.184 1816.09 817.045 1816.09 815.525C1816.09 814.006 1817.24 812.866 1818.76 812.866C1820.28 812.866 1821.43 814.006 1821.43 815.525Z" fill="white"/>
<path d="M1844.17 815.525C1844.17 817.045 1843.02 818.184 1841.5 818.184C1839.98 818.184 1838.83 817.045 1838.83 815.525C1838.83 814.006 1839.98 812.866 1841.5 812.866C1842.9 812.866 1844.17 814.006 1844.17 815.525Z" fill="white"/>
<path d="M1866.91 815.525C1866.91 817.045 1865.76 818.184 1864.24 818.184C1862.72 818.184 1861.57 817.045 1861.57 815.525C1861.57 814.006 1862.72 812.866 1864.24 812.866C1865.76 812.866 1866.91 814.006 1866.91 815.525Z" fill="white"/>
<path d="M1889.52 815.525C1889.52 817.045 1888.38 818.184 1886.85 818.184C1885.33 818.184 1884.18 817.045 1884.18 815.525C1884.18 814.006 1885.33 812.866 1886.85 812.866C1888.38 812.866 1889.52 814.006 1889.52 815.525Z" fill="white"/>
<path d="M1912.26 815.525C1912.26 817.045 1911.12 818.184 1909.59 818.184C1908.07 818.184 1906.92 817.045 1906.92 815.525C1906.92 814.006 1908.07 812.866 1909.59 812.866C1911.12 812.866 1912.26 814.006 1912.26 815.525Z" fill="white"/>
<path d="M1935 815.525C1935 817.045 1933.86 818.184 1932.33 818.184C1930.81 818.184 1929.66 817.045 1929.66 815.525C1929.66 814.006 1930.81 812.866 1932.33 812.866C1933.73 812.866 1935 814.006 1935 815.525Z" fill="white"/>
<path d="M1753.34 871.87C1753.34 873.389 1752.19 874.529 1750.67 874.529C1749.14 874.529 1748 873.389 1748 871.87C1748 870.35 1749.14 869.211 1750.67 869.211C1752.19 869.211 1753.34 870.477 1753.34 871.87Z" fill="white"/>
<path d="M1776.08 871.87C1776.08 873.389 1774.93 874.529 1773.41 874.529C1771.88 874.529 1770.74 873.389 1770.74 871.87C1770.74 870.35 1771.88 869.211 1773.41 869.211C1774.8 869.211 1776.08 870.477 1776.08 871.87Z" fill="white"/>
<path d="M1798.69 871.87C1798.69 873.389 1797.54 874.529 1796.02 874.529C1794.5 874.529 1793.35 873.389 1793.35 871.87C1793.35 870.35 1794.5 869.211 1796.02 869.211C1797.54 869.211 1798.69 870.477 1798.69 871.87Z" fill="white"/>
<path d="M1821.43 871.87C1821.43 873.389 1820.28 874.529 1818.76 874.529C1817.24 874.529 1816.09 873.389 1816.09 871.87C1816.09 870.35 1817.24 869.211 1818.76 869.211C1820.28 869.211 1821.43 870.477 1821.43 871.87Z" fill="white"/>
<path d="M1844.17 871.87C1844.17 873.389 1843.02 874.529 1841.5 874.529C1839.98 874.529 1838.83 873.389 1838.83 871.87C1838.83 870.35 1839.98 869.211 1841.5 869.211C1842.9 869.211 1844.17 870.477 1844.17 871.87Z" fill="white"/>
<path d="M1866.91 871.87C1866.91 873.389 1865.76 874.529 1864.24 874.529C1862.72 874.529 1861.57 873.389 1861.57 871.87C1861.57 870.35 1862.72 869.211 1864.24 869.211C1865.76 869.211 1866.91 870.477 1866.91 871.87Z" fill="white"/>
<path d="M1889.52 871.87C1889.52 873.389 1888.38 874.529 1886.85 874.529C1885.33 874.529 1884.18 873.389 1884.18 871.87C1884.18 870.35 1885.33 869.211 1886.85 869.211C1888.38 869.211 1889.52 870.477 1889.52 871.87Z" fill="white"/>
<path d="M1912.26 871.87C1912.26 873.389 1911.12 874.529 1909.59 874.529C1908.07 874.529 1906.92 873.389 1906.92 871.87C1906.92 870.35 1908.07 869.211 1909.59 869.211C1911.12 869.211 1912.26 870.477 1912.26 871.87Z" fill="white"/>
<path d="M1935 871.87C1935 873.389 1933.86 874.529 1932.33 874.529C1930.81 874.529 1929.66 873.389 1929.66 871.87C1929.66 870.35 1930.81 869.211 1932.33 869.211C1933.73 869.211 1935 870.477 1935 871.87Z" fill="white"/>
<path d="M1753.34 890.736C1753.34 892.256 1752.19 893.395 1750.67 893.395C1749.14 893.395 1748 892.256 1748 890.736C1748 889.217 1749.14 888.077 1750.67 888.077C1752.19 888.077 1753.34 889.217 1753.34 890.736Z" fill="white"/>
<path d="M1776.08 890.736C1776.08 892.256 1774.93 893.395 1773.41 893.395C1771.88 893.395 1770.74 892.256 1770.74 890.736C1770.74 889.217 1771.88 888.077 1773.41 888.077C1774.8 888.077 1776.08 889.217 1776.08 890.736Z" fill="white"/>
<path d="M1798.69 890.736C1798.69 892.256 1797.54 893.395 1796.02 893.395C1794.5 893.395 1793.35 892.256 1793.35 890.736C1793.35 889.217 1794.5 888.077 1796.02 888.077C1797.54 888.077 1798.69 889.217 1798.69 890.736Z" fill="white"/>
<path d="M1818.76 893.395C1820.23 893.395 1821.43 892.205 1821.43 890.736C1821.43 889.268 1820.23 888.077 1818.76 888.077C1817.29 888.077 1816.09 889.268 1816.09 890.736C1816.09 892.205 1817.29 893.395 1818.76 893.395Z" fill="white"/>
<path d="M1844.17 890.736C1844.17 892.256 1843.02 893.395 1841.5 893.395C1839.98 893.395 1838.83 892.256 1838.83 890.736C1838.83 889.217 1839.98 888.077 1841.5 888.077C1842.9 888.077 1844.17 889.217 1844.17 890.736Z" fill="white"/>
<path d="M1866.91 890.736C1866.91 892.256 1865.76 893.395 1864.24 893.395C1862.72 893.395 1861.57 892.256 1861.57 890.736C1861.57 889.217 1862.72 888.077 1864.24 888.077C1865.76 888.077 1866.91 889.217 1866.91 890.736Z" fill="white"/>
<path d="M1889.52 890.736C1889.52 892.256 1888.38 893.395 1886.85 893.395C1885.33 893.395 1884.18 892.256 1884.18 890.736C1884.18 889.217 1885.33 888.077 1886.85 888.077C1888.38 888.077 1889.52 889.217 1889.52 890.736Z" fill="white"/>
<path d="M1909.59 893.395C1911.07 893.395 1912.26 892.205 1912.26 890.736C1912.26 889.268 1911.07 888.077 1909.59 888.077C1908.12 888.077 1906.92 889.268 1906.92 890.736C1906.92 892.205 1908.12 893.395 1909.59 893.395Z" fill="white"/>
<path d="M1935 890.736C1935 892.256 1933.86 893.395 1932.33 893.395C1930.81 893.395 1929.66 892.256 1929.66 890.736C1929.66 889.217 1930.81 888.077 1932.33 888.077C1933.73 888.077 1935 889.217 1935 890.736Z" fill="white"/>
<path d="M1753.34 909.601C1753.34 911.121 1752.19 912.26 1750.67 912.26C1749.14 912.26 1748 911.121 1748 909.601C1748 908.082 1749.14 906.942 1750.67 906.942C1752.19 906.942 1753.34 908.082 1753.34 909.601Z" fill="white"/>
<path d="M1776.08 909.601C1776.08 911.121 1774.93 912.26 1773.41 912.26C1771.88 912.26 1770.74 911.121 1770.74 909.601C1770.74 908.082 1771.88 906.942 1773.41 906.942C1774.8 906.942 1776.08 908.082 1776.08 909.601Z" fill="white"/>
<path d="M1798.69 909.601C1798.69 911.121 1797.54 912.26 1796.02 912.26C1794.5 912.26 1793.35 911.121 1793.35 909.601C1793.35 908.082 1794.5 906.942 1796.02 906.942C1797.54 906.942 1798.69 908.082 1798.69 909.601Z" fill="white"/>
<path d="M1821.43 909.601C1821.43 911.121 1820.28 912.26 1818.76 912.26C1817.24 912.26 1816.09 911.121 1816.09 909.601C1816.09 908.082 1817.24 906.942 1818.76 906.942C1820.28 906.942 1821.43 908.082 1821.43 909.601Z" fill="white"/>
<path d="M1844.17 909.601C1844.17 911.121 1843.02 912.26 1841.5 912.26C1839.98 912.26 1838.83 911.121 1838.83 909.601C1838.83 908.082 1839.98 906.942 1841.5 906.942C1842.9 906.942 1844.17 908.082 1844.17 909.601Z" fill="white"/>
<path d="M1866.91 909.601C1866.91 911.121 1865.76 912.26 1864.24 912.26C1862.72 912.26 1861.57 911.121 1861.57 909.601C1861.57 908.082 1862.72 906.942 1864.24 906.942C1865.76 906.942 1866.91 908.082 1866.91 909.601Z" fill="white"/>
<path d="M1889.52 909.601C1889.52 911.121 1888.38 912.26 1886.85 912.26C1885.33 912.26 1884.18 911.121 1884.18 909.601C1884.18 908.082 1885.33 906.942 1886.85 906.942C1888.38 906.942 1889.52 908.082 1889.52 909.601Z" fill="white"/>
<path d="M1912.26 909.601C1912.26 911.121 1911.12 912.26 1909.59 912.26C1908.07 912.26 1906.92 911.121 1906.92 909.601C1906.92 908.082 1908.07 906.942 1909.59 906.942C1911.12 906.942 1912.26 908.082 1912.26 909.601Z" fill="white"/>
<path d="M1935 909.601C1935 911.121 1933.86 912.26 1932.33 912.26C1930.81 912.26 1929.66 911.121 1929.66 909.601C1929.66 908.082 1930.81 906.942 1932.33 906.942C1933.73 906.942 1935 908.082 1935 909.601Z" fill="white"/>
<path d="M1753.34 928.341C1753.34 929.86 1752.19 931 1750.67 931C1749.14 931 1748 929.86 1748 928.341C1748 926.821 1749.14 925.682 1750.67 925.682C1752.19 925.682 1753.34 926.948 1753.34 928.341Z" fill="white"/>
<path d="M1776.08 928.341C1776.08 929.86 1774.93 931 1773.41 931C1771.88 931 1770.74 929.86 1770.74 928.341C1770.74 926.821 1771.88 925.682 1773.41 925.682C1774.8 925.682 1776.08 926.948 1776.08 928.341Z" fill="white"/>
<path d="M1798.69 928.341C1798.69 929.86 1797.54 931 1796.02 931C1794.5 931 1793.35 929.86 1793.35 928.341C1793.35 926.821 1794.5 925.682 1796.02 925.682C1797.54 925.682 1798.69 926.948 1798.69 928.341Z" fill="white"/>
<path d="M1821.43 928.341C1821.43 929.86 1820.28 931 1818.76 931C1817.24 931 1816.09 929.86 1816.09 928.341C1816.09 926.821 1817.24 925.682 1818.76 925.682C1820.28 925.682 1821.43 926.948 1821.43 928.341Z" fill="white"/>
<path d="M1844.17 928.341C1844.17 929.86 1843.02 931 1841.5 931C1839.98 931 1838.83 929.86 1838.83 928.341C1838.83 926.821 1839.98 925.682 1841.5 925.682C1842.9 925.682 1844.17 926.948 1844.17 928.341Z" fill="white"/>
<path d="M1866.91 928.341C1866.91 929.86 1865.76 931 1864.24 931C1862.72 931 1861.57 929.86 1861.57 928.341C1861.57 926.821 1862.72 925.682 1864.24 925.682C1865.76 925.682 1866.91 926.948 1866.91 928.341Z" fill="white"/>
<path d="M1889.52 928.341C1889.52 929.86 1888.38 931 1886.85 931C1885.33 931 1884.18 929.86 1884.18 928.341C1884.18 926.821 1885.33 925.682 1886.85 925.682C1888.38 925.682 1889.52 926.948 1889.52 928.341Z" fill="white"/>
<path d="M1912.26 928.341C1912.26 929.86 1911.12 931 1909.59 931C1908.07 931 1906.92 929.86 1906.92 928.341C1906.92 926.821 1908.07 925.682 1909.59 925.682C1911.12 925.682 1912.26 926.948 1912.26 928.341Z" fill="white"/>
<path d="M1935 928.341C1935 929.86 1933.86 931 1932.33 931C1930.81 931 1929.66 929.86 1929.66 928.341C1929.66 926.821 1930.81 925.682 1932.33 925.682C1933.73 925.682 1935 926.948 1935 928.341Z" fill="white"/>
</g>
<g opacity="0.3">
<path d="M1746.81 120.221L1756.47 129.88L1730.78 155.563L1705.1 129.88L1714.68 120.294L1730.71 136.319L1746.81 120.221Z" fill="white"/>
<path d="M1746.81 85.5386L1756.39 95.1241L1730.71 120.807L1705.1 95.1973L1714.76 85.5386L1730.78 101.563L1746.81 85.5386Z" fill="white"/>
<path d="M1746.73 50.7816L1756.39 60.4404L1730.78 86.0506L1705.1 60.3672L1714.68 50.7816L1730.71 66.8063L1746.73 50.7816Z" fill="white"/>
<path d="M1746.81 16.0249L1756.46 25.6836L1730.78 51.367L1705.1 25.6836L1714.76 16.0249L1730.78 32.0496L1746.81 16.0249Z" fill="white"/>
</g>
<path opacity="0.3" d="M779 853.553C765.071 867.482 742.377 867.482 728.447 853.553C714.518 839.623 714.518 816.929 728.447 803L779 853.553Z" fill="white"/>
<g opacity="0.3">
<path d="M833.486 574.89C844.205 574.89 852.937 566.165 852.937 555.453C852.937 544.742 844.205 536.017 833.486 536.017L833.486 574.89Z" fill="white"/>
<path d="M803.141 574.89C813.861 574.89 822.592 566.165 822.592 555.453C822.592 544.742 813.861 536.017 803.141 536.017L803.141 574.89Z" fill="white"/>
<path d="M772.796 574.89C783.515 574.89 792.247 566.165 792.247 555.453C792.247 544.742 783.515 536.017 772.796 536.017L772.796 574.89Z" fill="white"/>
</g>
<g opacity="0.3">
<path d="M131.301 189.921L131.301 178L163 178L163 209.699L151.169 209.699L151.169 189.921L131.301 189.921Z" fill="white"/>
<path d="M109.898 211.325L109.898 199.494L141.597 199.494L141.597 231.103L129.676 231.103L129.676 211.325L109.898 211.325Z" fill="white"/>
<path d="M88.4946 232.819L88.4946 220.898L120.103 220.898L120.103 252.597L108.272 252.597L108.272 232.819L88.4946 232.819Z" fill="white"/>
<path d="M67.0005 254.222L67.0005 242.301L98.6992 242.301L98.6992 274L86.7783 274L86.7783 254.222L67.0005 254.222Z" fill="white"/>
</g>
<defs>
<clipPath id="clip0_2571_421">
<rect width="284" height="284" fill="white" transform="translate(0 813)"/>
</clipPath>
<clipPath id="clip1_2571_421">
<rect width="187" height="137" fill="white" transform="translate(1748 794)"/>
</clipPath>
</defs>
</svg>
